<svg xmlns="http://www.w3.org/2000/svg" width="238" height="56" fill="none"><g clip-path="url(#a)"><path fill="#FABF2C" d="M78.241 15.337q-.16 2.26-1.643 3.56-1.482 1.297-3.907 1.297-2.652 0-4.17-1.813Q67 16.57 67 13.404v-.857q0-2.019.701-3.559.701-1.538 2.002-2.36 1.303-.824 3.027-.823 2.385 0 3.845 1.299 1.457 1.297 1.686 3.645H75.42q-.105-1.356-.744-1.967-.64-.61-1.946-.61-1.421 0-2.126 1.033-.706 1.035-.725 3.208v1.058q0 2.27.677 3.318.678 1.05 2.136 1.049 1.316 0 1.965-.61.649-.612.743-1.89zm14.67-2.02q0 2.07-.72 3.626-.719 1.559-2.06 2.405-1.339.846-3.072.846-1.714 0-3.06-.836-1.343-.838-2.083-2.39-.739-1.553-.748-3.575v-.692q0-2.068.734-3.64t2.075-2.415q1.34-.84 3.063-.841 1.724 0 3.064.841 1.34.843 2.073 2.415.735 1.572.735 3.63zm-2.878-.635q0-2.203-.776-3.347Q88.48 8.19 87.04 8.19q-1.43 0-2.207 1.13t-.785 3.315v.683q0 2.145.776 3.327.776 1.184 2.235 1.184 1.429 0 2.198-1.14.766-1.14.776-3.324zm9.44 7.32h-2.84V5.997h2.84zm15.325 0h-2.842l-5.53-9.214v9.214h-2.841V5.997h2.841l5.54 9.234V5.997h2.832zm14.065-11.667h-4.224v11.667h-2.841V8.335h-4.167V5.997h11.232zm11.393 5.598h-5.454v3.751h6.401v2.318h-9.243V5.997h9.225v2.338h-6.383v3.337h5.454zm6.933 3.751h6.033v2.318h-8.874V5.997h2.841zm17.436-3.752h-5.455v3.752h6.401v2.318h-9.242V5.997h9.224v2.338h-6.383v3.337h5.455zm15.002 4.3q-.768.933-2.17 1.447-1.4.516-3.106.516-1.79 0-3.139-.794-1.35-.794-2.084-2.304t-.753-3.549v-.953q0-2.097.697-3.63.695-1.534 2.007-2.347 1.311-.813 3.074-.813 2.452 0 3.835 1.188t1.639 3.458h-2.766q-.19-1.203-.838-1.76-.649-.558-1.785-.558-1.45 0-2.208 1.106-.756 1.106-.766 3.29v.894q0 2.203.823 3.328.825 1.125 2.416 1.125 1.6 0 2.282-.692V14.77H174.2v-2.126h5.427zm8.883-3.356h-2.263v5.126h-2.842V5.997h5.124q2.444 0 3.769 1.107 1.326 1.105 1.326 3.125 0 1.434-.611 2.39-.611.958-1.851 1.525l2.983 5.723v.135h-3.05zm-2.263-2.338h2.291q1.07 0 1.658-.553.587-.554.587-1.525 0-.99-.554-1.558-.555-.567-1.7-.567h-2.283zm18.799 4.578h-4.982l-.946 2.886h-3.022l5.134-14.005h2.632l5.161 14.005h-3.02zm-4.214-2.336h3.447l-1.733-5.244zm13.798.288v4.934h-2.841V5.997h5.379q1.554 0 2.732.578 1.18.576 1.814 1.64.635 1.062.635 2.419 0 2.058-1.387 3.245-1.389 1.19-3.841 1.189zm0-2.338h2.538q1.128 0 1.719-.538.593-.54.592-1.539 0-1.03-.596-1.665-.597-.633-1.648-.653h-2.605zM237 20.002h-2.841V14h-5.54v6.002h-2.842V5.997h2.842v5.675h5.54V5.997H237z"/><path fill="#fff" d="M74.641 32.362h-3.004v8.283h-1.66v-8.283H67v-1.349h7.641zm3.234 1.906a2.52 2.52 0 0 1 1.992-.913q2.29 0 2.32 2.613v4.677h-1.606v-4.617q0-.741-.32-1.049-.323-.307-.944-.307-.966 0-1.442.859v5.114h-1.608V30.484h1.608zm9.632 6.509q-1.528 0-2.478-.962-.949-.963-.949-2.563v-.199q0-1.072.414-1.915a3.15 3.15 0 0 1 1.16-1.313 3.07 3.07 0 0 1 1.668-.47q1.461 0 2.259.932.796.934.797 2.64v.649H85.7q.074.886.593 1.402t1.306.516q1.105 0 1.8-.894l.867.828a2.9 2.9 0 0 1-1.149.996 3.6 3.6 0 0 1-1.61.353m-.192-6.133q-.662 0-1.068.464-.407.462-.52 1.29h3.062v-.12q-.051-.806-.429-1.22t-1.045-.414m9.333 6.001v-5.967h-1.092v-1.191h1.092v-.655q0-1.191.662-1.839.661-.648 1.852-.648.424 0 .9.119l-.04 1.257a3 3 0 0 0-.615-.053q-1.151 0-1.15 1.184v.635h1.453v1.191h-1.454v5.967zm9.116-.7q-.708.832-2.012.832-1.165 0-1.762-.681-.599-.68-.599-1.972v-4.637h1.608v4.617q0 1.364 1.131 1.364 1.171 0 1.58-.84v-5.141h1.608v7.158h-1.515zm5.748-8.198v1.74h1.264v1.191h-1.264v3.995q0 .411.162.593.163.18.579.181.279 0 .562-.066v1.244c-.344.099-.7.15-1.058.152q-1.852 0-1.852-2.044v-4.055h-1.178v-1.191h1.177v-1.739h1.608m7.369 8.197q-.708.834-2.011.833-1.165 0-1.763-.681-.6-.68-.599-1.972v-4.637h1.608v4.617q0 1.364 1.131 1.364 1.17 0 1.581-.84v-5.141h1.608v7.158h-1.515zm7.482-4.988a4 4 0 0 0-.655-.053q-1.105 0-1.489.847v4.895h-1.607v-7.158h1.535l.039.8q.583-.932 1.614-.932.344 0 .569.092zm4.584 5.821q-1.529 0-2.478-.962-.948-.963-.949-2.563v-.199q0-1.072.413-1.915a3.15 3.15 0 0 1 1.161-1.313 3.07 3.07 0 0 1 1.667-.47q1.463 0 2.259.932.797.934.798 2.64v.649h-4.678q.074.886.593 1.402t1.306.516q1.105 0 1.8-.894l.867.828a2.9 2.9 0 0 1-1.149.996 3.6 3.6 0 0 1-1.61.353m-.192-6.133q-.662 0-1.068.464-.407.462-.52 1.29h3.062v-.12q-.052-.806-.429-1.22-.378-.413-1.045-.414M139.221 37q0-1.052.417-1.895a3.04 3.04 0 0 1 1.171-1.297q.754-.453 1.734-.453 1.448 0 2.351.932.904.934.976 2.475l.007.377q0 1.058-.407 1.892a3 3 0 0 1-1.165 1.29q-.757.456-1.749.456-1.515 0-2.425-1.008-.91-1.01-.91-2.69zm1.608.139q0 1.105.457 1.73.455.625 1.27.625.813 0 1.266-.636.454-.633.453-1.858 0-1.084-.466-1.72t-1.267-.635q-.786 0-1.25.625t-.463 1.869m7.516 3.506v-5.967h-1.092v-1.191h1.092v-.655q0-1.191.661-1.839t1.852-.648q.424 0 .9.119l-.04 1.257a3 3 0 0 0-.614-.053q-1.152 0-1.152 1.184v.635h1.455v1.191h-1.455v5.967zm10.206-7.158.046.748q.754-.88 2.064-.88 1.435 0 1.965 1.099.78-1.1 2.196-1.099 1.184 0 1.763.655.58.654.593 1.931v4.704h-1.608v-4.657q0-.682-.298-.999-.298-.318-.985-.318-.549 0-.897.295c-.235.202-.405.47-.486.77l.007 4.91h-1.608v-4.711q-.033-1.264-1.29-1.264-.967 0-1.369.788v5.186h-1.608v-7.158zm10.518 3.514q0-1.053.416-1.896a3.05 3.05 0 0 1 1.172-1.297q.753-.453 1.733-.453 1.45 0 2.351.932.904.934.976 2.475l.007.377q0 1.058-.406 1.892a3 3 0 0 1-1.166 1.29q-.757.456-1.749.456-1.515 0-2.424-1.008-.91-1.01-.91-2.69zm1.608.138q0 1.105.456 1.73.457.625 1.27.625t1.267-.636q.453-.633.453-1.858 0-1.084-.466-1.72-.467-.636-1.267-.635-.788 0-1.251.625t-.462 1.869m8.44-3.652.046.827q.795-.96 2.084-.959 2.236 0 2.276 2.56v4.73h-1.607v-4.637q0-.681-.295-1.009-.293-.328-.963-.328-.972 0-1.448.88v5.094h-1.608v-7.158zm9.737 7.29q-1.528 0-2.476-.962-.95-.963-.95-2.563v-.199q0-1.072.413-1.915a3.15 3.15 0 0 1 1.162-1.313 3.07 3.07 0 0 1 1.666-.47q1.463 0 2.26.932.797.934.797 2.64v.649h-4.677q.072.886.591 1.402.52.516 1.307.516 1.105 0 1.799-.894l.868.828a2.9 2.9 0 0 1-1.148.996 3.6 3.6 0 0 1-1.612.353m-.191-6.133q-.661 0-1.069.464-.406.462-.519 1.29h3.063v-.12q-.053-.806-.43-1.22t-1.045-.414m7.27 3.699 1.455-4.856h1.713l-2.845 8.243q-.654 1.806-2.222 1.806a2.9 2.9 0 0 1-.774-.119v-1.244l.305.02q.608 0 .915-.221.308-.223.486-.744l.232-.616-2.513-7.125h1.733zM35.08 40.748l-10.086 4.335v-.434c-1.945.492-4.099.776-6.14.867-9.484-.091-17.012-4.998-17.1-10.837V32.51c3.115 4.478 9.457 7.478 17.1 7.37 2.587.108 5.232-.296 7.455-.867l.877-2.168c-2.636.778-5.514 1.319-8.331 1.3-9.485.019-17.013-4.888-17.1-10.836v-1.734c3.114 4.14 9.442 7.14 17.1 6.936 3.445.205 6.814-.512 9.646-1.735l.44-2.167c-2.768 1.443-6.355 2.281-10.086 2.167-9.485.114-17.013-4.793-17.1-10.836v-1.735c3.114 4.236 9.456 7.237 17.1 7.37 4.344-.133 8.463-1.268 11.84-3.035l.438-2.601c-3.064 2.245-7.538 3.692-12.278 3.901-9.485-.209-17.012-5.117-17.1-11.27.087-5.852 7.615-10.76 17.1-10.837 5.654.078 10.905 2.038 14.032 5.202l.305.501 2.21.01-.322-.511C31.97 2.758 25.75 0 18.855 0 8.36 0 0 5.718 0 12.571v22.541c.369 6.69 8.538 12.137 18.855 12.137 6.814 0 12.938-2.649 16.225-6.5"/><path fill="#FABF2C" d="m30.977 56 3.54-14.875L24.34 45.5l6.196-25.812h-11.95L21.683 7h38.059l-3.098 12.688h-12.39l-2.656 7L55.316 21zm6.196-17.938-1.77 8.75 14.603-21.874-11.949 5.25 5.311-12.25h11.948l2.213-9.188H23.01l-2.213 9.188h11.95l-5.754 24.5 10.179-4.374z"/><path fill="#fff" d="M96.622 40.66h1.594v-5.994h1.476V33.5h-1.476v-.688q0-.377.132-.635a.9.9 0 0 1 .397-.39q.265-.14.629-.14.18 0 .33.014.16.013.292.046l.04-1.23a3 3 0 0 0-.45-.086 3 3 0 0 0-.47-.033q-.768 0-1.33.284a1.96 1.96 0 0 0-.867.827q-.297.543-.297 1.343v.688h-1.099v1.165h1.099zM77.88 34.323v-3.825h-1.587V40.66h1.587v-5.11q.071-.136.16-.256.218-.297.542-.47.33-.171.76-.171.411 0 .695.139.285.132.43.436.153.305.153.82v4.612h1.6v-4.598q0-.735-.165-1.244a2 2 0 0 0-.47-.834 1.8 1.8 0 0 0-.74-.47 2.9 2.9 0 0 0-.953-.145 2.52 2.52 0 0 0-2.012.954M71.642 40.66v-8.31h3.024v-1.323h-7.668v1.323h2.997v8.31z"/><path fill="#fff" fill-rule="evenodd" d="M87.52 40.792a3.8 3.8 0 0 1-1.436-.258 3.2 3.2 0 0 1-1.085-.734 3.3 3.3 0 0 1-.682-1.105 3.9 3.9 0 0 1-.238-1.37v-.264q0-.84.245-1.522.244-.681.681-1.164a2.9 2.9 0 0 1 1.032-.748 3.2 3.2 0 0 1 1.29-.258q.768 0 1.344.258.574.258.952.728.384.463.57 1.105.19.642.191 1.416v.681h-4.696q.024.339.118.642.132.397.383.695.252.297.61.47.356.165.813.165.576 0 1.026-.232t.78-.655l.84.814a3.3 3.3 0 0 1-.602.648q-.37.305-.906.496a3.6 3.6 0 0 1-1.23.192m-1.734-4.73a4 4 0 0 0-.065.35h3.088v-.125a2.2 2.2 0 0 0-.171-.807 1.37 1.37 0 0 0-.47-.61q-.318-.23-.847-.23-.397 0-.708.171a1.4 1.4 0 0 0-.51.483 2.6 2.6 0 0 0-.317.768" clip-rule="evenodd"/><path fill="#fff" d="M104.951 40.548a2.3 2.3 0 0 0 .786-.618l.041.73h1.508v-7.159h-1.601v5.138a1.45 1.45 0 0 1-.51.599q-.39.264-1.071.264a1.5 1.5 0 0 1-.45-.066.9.9 0 0 1-.371-.225 1.1 1.1 0 0 1-.251-.417 2 2 0 0 1-.093-.655v-4.638h-1.594v4.625q0 .708.172 1.218t.483.826q.317.318.754.47t.959.152q.721 0 1.238-.244M112.73 34.666V33.5h-1.277v-1.753h-1.594v1.753h-1.165v1.165h1.165v4.115q0 .735.238 1.178.238.444.662.641.423.192.972.192.338 0 .596-.046.264-.046.463-.106l-.007-1.217a3 3 0 0 1-.562.06q-.231 0-.404-.06a.5.5 0 0 1-.271-.232q-.093-.178-.093-.51v-4.015zM118.062 40.548q.47-.23.787-.618l.04.73h1.509v-7.159h-1.601v5.138a1.46 1.46 0 0 1-.51.599q-.39.264-1.072.264-.238 0-.45-.066a.9.9 0 0 1-.37-.225 1.1 1.1 0 0 1-.252-.417 2 2 0 0 1-.092-.655v-4.638h-1.595v4.625q0 .708.172 1.218t.483.826q.318.318.755.47.436.152.959.152.721 0 1.237-.244M124.161 35.767v4.893h-1.594v-7.159h1.522l.045.841.027-.047q.272-.436.675-.681.41-.245.946-.245.146 0 .311.026.172.027.258.06l-.013 1.482a4.134 4.134 0 0 0-.648-.053q-.41 0-.721.12a1.36 1.36 0 0 0-.808.763"/><path fill="#fff" fill-rule="evenodd" d="M130.903 40.792q-.794 0-1.436-.258a3.2 3.2 0 0 1-1.085-.734 3.3 3.3 0 0 1-.682-1.105 3.9 3.9 0 0 1-.238-1.37v-.264q0-.84.245-1.522.244-.681.681-1.164a2.9 2.9 0 0 1 1.033-.748 3.2 3.2 0 0 1 1.29-.258q.767 0 1.343.258t.953.728q.383.463.568 1.105.192.642.192 1.416v.681h-4.696q.024.339.118.642.132.397.384.695.25.297.608.47.358.165.814.165a2.2 2.2 0 0 0 1.026-.232q.45-.232.78-.655l.841.814a3.3 3.3 0 0 1-.602.648 3 3 0 0 1-.907.496 3.6 3.6 0 0 1-1.23.192m-1.734-4.73a4 4 0 0 0-.065.35h3.089v-.125a2.2 2.2 0 0 0-.172-.807 1.37 1.37 0 0 0-.47-.61q-.318-.23-.847-.23-.397 0-.708.171-.305.166-.509.483a2.5 2.5 0 0 0-.318.768M139.138 37.008v.152q0 .774.225 1.436.225.66.655 1.158.43.49 1.045.767.623.271 1.41.271.78 0 1.396-.27.615-.279 1.045-.768a3.4 3.4 0 0 0 .655-1.158q.225-.662.225-1.436v-.152q0-.774-.225-1.436a3.35 3.35 0 0 0-.655-1.158 2.9 2.9 0 0 0-1.052-.767 3.4 3.4 0 0 0-1.403-.278q-.78 0-1.402.278-.615.271-1.046.767a3.4 3.4 0 0 0-.648 1.158q-.225.662-.225 1.436m1.595.152v-.152q0-.477.099-.9a2.4 2.4 0 0 1 .311-.76q.212-.331.536-.517.33-.192.78-.192t.774.192q.332.186.543.516.218.33.318.761.105.423.105.9v.152q0 .483-.105.913-.1.43-.311.754a1.54 1.54 0 0 1-.543.51 1.5 1.5 0 0 1-.767.185q-.457 0-.788-.185a1.54 1.54 0 0 1-.542-.51 2.3 2.3 0 0 1-.311-.754 4 4 0 0 1-.099-.913" clip-rule="evenodd"/><path fill="#fff" d="M149.816 40.66h-1.595v-5.994h-1.098V33.5h1.098v-.688q0-.8.298-1.343.305-.55.867-.827.562-.285 1.33-.284.237 0 .469.033.233.026.45.086l-.039 1.23a2 2 0 0 0-.292-.046 4 4 0 0 0-.33-.013q-.365 0-.629.139a.92.92 0 0 0-.397.39 1.4 1.4 0 0 0-.132.635v.688h1.475v1.165h-1.475zM158.475 35.514v5.146h-1.595v-7.159h1.502l.051.807q.35-.44.855-.68.537-.26 1.238-.259.49 0 .893.146.41.138.708.443.22.22.365.533.063-.09.131-.176.358-.443.88-.695a2.7 2.7 0 0 1 1.198-.251q.549 0 .979.152.437.146.741.463t.463.827q.159.503.159 1.218v4.631h-1.601v-4.638q0-.543-.159-.84a.82.82 0 0 0-.437-.41q-.285-.12-.681-.12-.371 0-.655.14a1.3 1.3 0 0 0-.47.377 1.7 1.7 0 0 0-.288.538q.003.09.003.183v4.77h-1.594V36.03q0-.523-.159-.82a.88.88 0 0 0-.443-.424 1.6 1.6 0 0 0-.682-.132q-.45 0-.767.172a1.46 1.46 0 0 0-.51.47q-.07.104-.125.218"/><path fill="#fff" fill-rule="evenodd" d="M168.908 37.16v-.152q0-.774.225-1.436.225-.667.648-1.158a2.9 2.9 0 0 1 1.045-.767 3.4 3.4 0 0 1 1.403-.278q.787 0 1.403.278.621.271 1.052.767.43.49.655 1.158.225.662.225 1.436v.152q0 .774-.225 1.436-.226.66-.655 1.158a3 3 0 0 1-1.046.767q-.615.271-1.396.271a3.5 3.5 0 0 1-1.409-.27 3 3 0 0 1-1.045-.768 3.4 3.4 0 0 1-.655-1.158 4.4 4.4 0 0 1-.225-1.436m1.594-.152v.152q0 .483.099.913.1.43.311.754.211.325.543.51.33.185.787.185.444 0 .768-.185a1.54 1.54 0 0 0 .542-.51 2.3 2.3 0 0 0 .311-.754q.106-.43.106-.913v-.152q0-.477-.106-.9a2.3 2.3 0 0 0-.317-.76 1.5 1.5 0 0 0-.543-.517 1.5 1.5 0 0 0-.774-.192q-.45 0-.781.192a1.54 1.54 0 0 0-.536.516q-.211.33-.311.761a4 4 0 0 0-.099.9" clip-rule="evenodd"/><path fill="#fff" d="M179.01 35.573v5.087h-1.595v-7.159h1.502l.052.863.034-.042a2.56 2.56 0 0 1 .9-.702 2.65 2.65 0 0 1 1.164-.251q.516 0 .933.146.424.138.721.456.305.318.464.827.158.503.158 1.237v4.625h-1.601V36.03q0-.516-.152-.814a.85.85 0 0 0-.43-.43 1.6 1.6 0 0 0-.695-.132q-.41 0-.734.172a1.65 1.65 0 0 0-.549.47q-.096.13-.172.277"/><path fill="#fff" fill-rule="evenodd" d="M188.655 40.792a3.8 3.8 0 0 1-1.435-.258 3.2 3.2 0 0 1-1.085-.734 3.3 3.3 0 0 1-.682-1.105 3.9 3.9 0 0 1-.238-1.37v-.264q0-.84.245-1.522.244-.681.681-1.164a2.9 2.9 0 0 1 1.032-.748 3.2 3.2 0 0 1 1.29-.258q.768 0 1.344.258.575.258.952.728.384.463.569 1.105.192.642.192 1.416v.681h-4.696q.024.339.118.642.132.397.383.695.252.297.609.47.357.165.814.165.575 0 1.025-.232t.781-.655l.84.814a3.3 3.3 0 0 1-.602.648 3 3 0 0 1-.906.496 3.6 3.6 0 0 1-1.231.192m-1.733-4.73a4 4 0 0 0-.065.35h3.088v-.125a2.2 2.2 0 0 0-.172-.807 1.37 1.37 0 0 0-.469-.61q-.318-.23-.847-.23-.398 0-.708.171-.305.166-.51.483a2.6 2.6 0 0 0-.317.768" clip-rule="evenodd"/><path fill="#fff" d="m194.994 40.642-2.535-7.14h1.72l1.552 4.89 1.491-4.89h1.707l-2.871 8.25a6 6 0 0 1-.258.575 2.6 2.6 0 0 1-.417.59q-.252.284-.628.456-.378.178-.913.178-.212 0-.411-.04a7 7 0 0 1-.364-.072l-.006-1.218a6 6 0 0 0 .317.02 1.9 1.9 0 0 0 .662-.099.9.9 0 0 0 .43-.304q.172-.212.291-.57z"/></g><defs><clipPath id="a"><path fill="#fff" d="M0 0h238v56H0z"/></clipPath></defs></svg>